<?xml version="1.0" encoding="UTF-8" standalone="no"?>
<!-- Created with Inkscape (http://www.inkscape.org/) -->

<svg
   width="20.32mm"
   height="128.5mm"
   viewBox="0 0 20.32 128.5"
   version="1.1"
   id="svg4620"
   inkscape:version="1.1.1 (3bf5ae0d25, 2021-09-20)"
   sodipodi:docname="PleineLune.svg"
   xmlns:inkscape="http://www.inkscape.org/namespaces/inkscape"
   xmlns:sodipodi="http://sodipodi.sourceforge.net/DTD/sodipodi-0.dtd"
   xmlns="http://www.w3.org/2000/svg"
   xmlns:svg="http://www.w3.org/2000/svg"
   xmlns:rdf="http://www.w3.org/1999/02/22-rdf-syntax-ns#"
   xmlns:cc="http://creativecommons.org/ns#"
   xmlns:dc="http://purl.org/dc/elements/1.1/">
  <defs
     id="defs4614">
    <rect
       x="-57.453993"
       y="129.69188"
       width="99.982082"
       height="47.238203"
       id="rect74061" />
    <rect
       x="-136.32111"
       y="109.12245"
       width="68.329445"
       height="45.038065"
       id="rect3687" />
    <style
       id="style6"
       type="text/css">
   
    .str0 {stroke:#565656;stroke-width:0.0966867}
    .str1 {stroke:#4F4F4F;stroke-width:0.193345}
    .fil0 {fill:none}
    .fil2 {fill:#2B2A29}
    .fil1 {fill:#6B6B6B}
   
  </style>
    <rect
       x="-136.32111"
       y="109.12245"
       width="99.551272"
       height="55.761607"
       id="rect49081" />
    <rect
       x="-136.32111"
       y="109.12245"
       width="99.551272"
       height="55.761607"
       id="rect57571" />
    <rect
       x="-136.32111"
       y="109.12245"
       width="99.551272"
       height="55.761607"
       id="rect57573" />
    <rect
       x="-136.32111"
       y="109.12245"
       width="99.551272"
       height="55.761607"
       id="rect57943" />
    <rect
       x="-136.32111"
       y="109.12245"
       width="99.551272"
       height="55.761607"
       id="rect57945" />
    <rect
       x="-136.32111"
       y="109.12245"
       width="41.800371"
       height="52.120565"
       id="rect99869" />
    <rect
       x="-136.32111"
       y="109.12245"
       width="90.375219"
       height="48.601519"
       id="rect116021" />
    <rect
       x="-136.32111"
       y="109.12245"
       width="99.551272"
       height="55.761607"
       id="rect131667" />
    <rect
       x="-136.32111"
       y="109.12245"
       width="99.551272"
       height="55.761607"
       id="rect131669" />
    <rect
       x="-136.32111"
       y="109.12245"
       width="41.800371"
       height="52.120565"
       id="rect131671" />
    <rect
       x="-136.32111"
       y="109.12245"
       width="90.375219"
       height="48.601519"
       id="rect131673" />
    <rect
       x="-136.32111"
       y="109.12245"
       width="121.15006"
       height="48.212014"
       id="rect131909" />
    <rect
       x="-136.32111"
       y="109.12245"
       width="121.15006"
       height="48.212014"
       id="rect139249" />
    <rect
       x="-136.32111"
       y="109.12245"
       width="99.551272"
       height="55.761607"
       id="rect141187" />
    <rect
       x="-136.32111"
       y="109.12245"
       width="99.551272"
       height="55.761607"
       id="rect141189" />
    <rect
       x="-136.32111"
       y="109.12245"
       width="41.800371"
       height="52.120565"
       id="rect141191" />
    <rect
       x="-136.32111"
       y="109.12245"
       width="90.375219"
       height="48.601519"
       id="rect141193" />
    <rect
       x="-136.32111"
       y="109.12245"
       width="121.15006"
       height="48.212014"
       id="rect141195" />
    <rect
       x="-136.32111"
       y="109.12245"
       width="121.15006"
       height="48.212014"
       id="rect141197" />
    <rect
       x="-136.32111"
       y="109.12245"
       width="99.551272"
       height="55.761607"
       id="rect141544" />
    <rect
       x="-136.32111"
       y="109.12245"
       width="99.551272"
       height="55.761607"
       id="rect141546" />
    <rect
       x="-136.32111"
       y="109.12245"
       width="41.800371"
       height="52.120565"
       id="rect141548" />
    <rect
       x="-136.32111"
       y="109.12245"
       width="90.375219"
       height="48.601519"
       id="rect141550" />
    <rect
       x="-136.32111"
       y="109.12245"
       width="121.15006"
       height="48.212014"
       id="rect141552" />
    <rect
       x="-136.32111"
       y="109.12245"
       width="121.15006"
       height="48.212014"
       id="rect141554" />
    <rect
       x="-136.32111"
       y="109.12245"
       width="99.551272"
       height="55.761607"
       id="rect142059" />
    <rect
       x="-136.32111"
       y="109.12245"
       width="99.551272"
       height="55.761607"
       id="rect142061" />
    <rect
       x="-136.32111"
       y="109.12245"
       width="41.800371"
       height="52.120565"
       id="rect142063" />
    <rect
       x="-136.32111"
       y="109.12245"
       width="90.375219"
       height="48.601519"
       id="rect142065" />
    <rect
       x="-136.32111"
       y="109.12245"
       width="121.15006"
       height="48.212014"
       id="rect142067" />
    <rect
       x="-136.32111"
       y="109.12245"
       width="121.15006"
       height="48.212014"
       id="rect142069" />
    <rect
       x="-136.32111"
       y="109.12245"
       width="99.551272"
       height="55.761607"
       id="rect142372" />
    <rect
       x="-136.32111"
       y="109.12245"
       width="99.551272"
       height="55.761607"
       id="rect142374" />
    <rect
       x="-136.32111"
       y="109.12245"
       width="41.800371"
       height="52.120565"
       id="rect142376" />
    <rect
       x="-136.32111"
       y="109.12245"
       width="90.375219"
       height="48.601519"
       id="rect142378" />
    <rect
       x="-136.32111"
       y="109.12245"
       width="121.15006"
       height="48.212014"
       id="rect142380" />
    <rect
       x="-136.32111"
       y="109.12245"
       width="121.15006"
       height="48.212014"
       id="rect142382" />
    <rect
       x="-136.32111"
       y="109.12245"
       width="68.329445"
       height="45.038065"
       id="rect40540" />
    <rect
       x="-136.32111"
       y="109.12245"
       width="99.551272"
       height="55.761607"
       id="rect40542" />
    <rect
       x="-136.32111"
       y="109.12245"
       width="41.800371"
       height="52.120565"
       id="rect40544" />
    <rect
       x="-136.32111"
       y="109.12245"
       width="90.375219"
       height="48.601519"
       id="rect40546" />
    <rect
       x="-136.32111"
       y="109.12245"
       width="121.15006"
       height="48.212014"
       id="rect40548" />
    <rect
       x="-136.32111"
       y="109.12245"
       width="121.15006"
       height="48.212014"
       id="rect40550" />
    <rect
       x="-136.32111"
       y="109.12245"
       width="68.329445"
       height="45.038065"
       id="rect4869" />
    <rect
       x="-136.32111"
       y="109.12245"
       width="99.551272"
       height="55.761607"
       id="rect4871" />
    <rect
       x="-136.32111"
       y="109.12245"
       width="41.800371"
       height="52.120565"
       id="rect4873" />
    <rect
       x="-136.32111"
       y="109.12245"
       width="90.375219"
       height="48.601519"
       id="rect4875" />
    <rect
       x="-136.32111"
       y="109.12245"
       width="121.15006"
       height="48.212014"
       id="rect4877" />
    <rect
       x="-136.32111"
       y="109.12245"
       width="121.15006"
       height="48.212014"
       id="rect4879" />
    <rect
       x="-136.32111"
       y="109.12245"
       width="68.329445"
       height="45.038065"
       id="rect5256" />
    <rect
       x="-136.32111"
       y="109.12245"
       width="99.551272"
       height="55.761607"
       id="rect5258" />
    <rect
       x="-136.32111"
       y="109.12245"
       width="41.800371"
       height="52.120565"
       id="rect5260" />
    <rect
       x="-136.32111"
       y="109.12245"
       width="90.375219"
       height="48.601519"
       id="rect5262" />
    <rect
       x="-136.32111"
       y="109.12245"
       width="121.15006"
       height="48.212014"
       id="rect5264" />
    <rect
       x="-136.32111"
       y="109.12245"
       width="121.15006"
       height="48.212014"
       id="rect5266" />
    <rect
       x="-136.32111"
       y="109.12245"
       width="68.329445"
       height="45.038065"
       id="rect5550" />
    <rect
       x="-136.32111"
       y="109.12245"
       width="99.551272"
       height="55.761607"
       id="rect5552" />
    <rect
       x="-136.32111"
       y="109.12245"
       width="41.800371"
       height="52.120565"
       id="rect5554" />
    <rect
       x="-136.32111"
       y="109.12245"
       width="90.375219"
       height="48.601519"
       id="rect5556" />
    <rect
       x="-136.32111"
       y="109.12245"
       width="121.15006"
       height="48.212014"
       id="rect5558" />
    <rect
       x="-136.32111"
       y="109.12245"
       width="121.15006"
       height="48.212014"
       id="rect5560" />
  </defs>
  <sodipodi:namedview
     id="base"
     pagecolor="#ffffff"
     bordercolor="#666666"
     borderopacity="1.0"
     inkscape:pageopacity="0.0"
     inkscape:pageshadow="2"
     inkscape:zoom="8"
     inkscape:cx="48.4375"
     inkscape:cy="25.25"
     inkscape:document-units="mm"
     inkscape:current-layer="g5548"
     showgrid="false"
     inkscape:window-width="1920"
     inkscape:window-height="1011"
     inkscape:window-x="2560"
     inkscape:window-y="32"
     inkscape:window-maximized="1"
     inkscape:pagecheckerboard="0"
     width="45.72mm"
     units="in" />
  <metadata
     id="metadata4617">
    <rdf:RDF>
      <cc:Work
         rdf:about="">
        <dc:format>image/svg+xml</dc:format>
        <dc:type
           rdf:resource="http://purl.org/dc/dcmitype/StillImage" />
      </cc:Work>
    </rdf:RDF>
  </metadata>
  <g
     inkscape:label="Layer 1"
     inkscape:groupmode="layer"
     id="layer1"
     transform="translate(0,-168.5)"
     style="display:none">
    <rect
       style="opacity:1;fill:#293241;fill-opacity:1;stroke-width:0.2099;stroke-miterlimit:4;stroke-dasharray:none"
       id="rect815"
       width="20.32"
       height="128.49823"
       x="0"
       y="168.50089" />
    <text
       xml:space="preserve"
       transform="matrix(0.37447461,0,0,0.37447461,48.41492,128.94315)"
       id="text3685"
       style="font-style:normal;font-variant:normal;font-weight:normal;font-stretch:normal;font-size:17.9037px;line-height:0.95;font-family:Facade;-inkscape-font-specification:Facade;white-space:pre;shape-inside:url(#rect3687);fill:#98c1d9;fill-opacity:1;stroke:none"
       x="18.554714"
       y="0"><tspan
         x="-123.81968"
         y="122.10751"
         id="tspan5778"><tspan
           style="font-weight:900;-inkscape-font-specification:'Facade Heavy';text-align:center;text-anchor:middle"
           id="tspan5776">pleine
</tspan></tspan><tspan
         x="-117.19533"
         y="139.11603"
         id="tspan5782"><tspan
           style="font-weight:900;-inkscape-font-specification:'Facade Heavy';text-align:center;text-anchor:middle"
           id="tspan5780">lune</tspan></tspan></text>
    <text
       xml:space="preserve"
       transform="matrix(0.19853075,0,0,0.19853075,32.26051,267.33535)"
       id="text49079"
       style="font-style:normal;font-variant:normal;font-weight:normal;font-stretch:normal;font-size:40px;line-height:1.25;font-family:Facade;-inkscape-font-specification:Facade;white-space:pre;shape-inside:url(#rect49081);fill:#98c1d9;fill-opacity:1;stroke:none"><tspan
         x="-136.32031"
         y="144.13262"
         id="tspan5784">MS</tspan></text>
    <ellipse
       style="fill:#3d5a80;fill-opacity:1;stroke:#ee6c4d;stroke-width:0.202997;stroke-miterlimit:4;stroke-dasharray:none;stroke-opacity:1"
       id="path57331"
       cx="10.159962"
       cy="183.4987"
       rx="1.1180015"
       ry="1.1180394" />
    <path
       style="display:inline;fill:none;stroke:#e0fbfc;stroke-width:0.264583px;stroke-linecap:butt;stroke-linejoin:miter;stroke-opacity:1"
       d="m 5.2,232.842 v 48.773"
       id="path58294"
       sodipodi:nodetypes="cc" />
    <path
       style="display:inline;fill:none;stroke:#e0fbfc;stroke-width:0.264583px;stroke-linecap:butt;stroke-linejoin:miter;stroke-opacity:1"
       d="m 15.132291,232.842 v 48.773"
       id="path58811"
       sodipodi:nodetypes="cc" />
    <text
       xml:space="preserve"
       transform="matrix(0.08401361,0,0,0.08401361,15.484975,215.09134)"
       id="text99867"
       style="font-style:normal;font-variant:normal;font-weight:normal;font-stretch:normal;font-size:40px;line-height:1.25;font-family:Facade;-inkscape-font-specification:Facade;white-space:pre;shape-inside:url(#rect99869);fill:#e0fbfc;fill-opacity:1;stroke:none"><tspan
         x="-136.32031"
         y="144.13262"
         id="tspan5788"><tspan
           style="font-weight:100;-inkscape-font-specification:'Facade Thin'"
           id="tspan5786">in</tspan></tspan></text>
    <text
       xml:space="preserve"
       transform="matrix(0.08401361,0,0,0.08401361,24.383898,215.09134)"
       id="text116019"
       style="font-style:normal;font-variant:normal;font-weight:normal;font-stretch:normal;font-size:40px;line-height:1.25;font-family:Facade;-inkscape-font-specification:Facade;white-space:pre;shape-inside:url(#rect116021);fill:#e0fbfc;fill-opacity:1;stroke:none"><tspan
         x="-136.32031"
         y="144.13262"
         id="tspan5792"><tspan
           style="font-weight:100;-inkscape-font-specification:'Facade Thin'"
           id="tspan5790">out</tspan></tspan></text>
    <text
       xml:space="preserve"
       transform="matrix(0.08401361,0,0,0.08401361,17.680929,204.508)"
       id="text131907"
       style="font-style:normal;font-variant:normal;font-weight:normal;font-stretch:normal;font-size:40px;line-height:1.25;font-family:Facade;-inkscape-font-specification:Facade;white-space:pre;shape-inside:url(#rect131909);fill:#e0fbfc;fill-opacity:1;stroke:none"><tspan
         x="-136.32031"
         y="144.13262"
         id="tspan5796"><tspan
           style="font-weight:100;-inkscape-font-specification:'Facade Thin'"
           id="tspan5794">knobs</tspan></tspan></text>
    <text
       xml:space="preserve"
       transform="matrix(0.08401361,0,0,0.08401361,17.344874,187.77457)"
       id="text139247"
       style="font-style:normal;font-variant:normal;font-weight:normal;font-stretch:normal;font-size:40px;line-height:1.25;font-family:Facade;-inkscape-font-specification:Facade;white-space:pre;shape-inside:url(#rect139249);fill:#e0fbfc;fill-opacity:1;stroke:none"><tspan
         x="-136.32031"
         y="144.13262"
         id="tspan5800"><tspan
           style="font-weight:100;-inkscape-font-specification:'Facade Thin'"
           id="tspan5798">button</tspan></tspan></text>
  </g>
  <g
     inkscape:label="Copie de Layer 1"
     inkscape:groupmode="layer"
     id="g5548"
     transform="translate(0,-168.5)"
     style="display:inline">
    <path
       id="rect5502"
       style="opacity:1;fill:#293241;stroke-width:0.2099"
       d="M 0,168.50089 H 20.32 V 296.99911 H 0 Z" />
    <g
       aria-label="pleine
lune"
       transform="matrix(0.37447461,0,0,0.37447461,48.41492,128.94315)"
       id="text5512"
       style="font-size:17.9037px;line-height:0.95;font-family:Facade;-inkscape-font-specification:Facade;white-space:pre;shape-inside:url(#rect5550);fill:#98c1d9">
      <path
         d="m -119.61231,126.78038 v -4.67287 h 2.95411 V 111.9024 h -5.90822 v 14.87798 z m 0,-14.0186 h 2.68556 v 8.48635 h -2.68556 z"
         style="font-weight:900;-inkscape-font-specification:'Facade Heavy';text-align:center;text-anchor:middle"
         id="path5604" />
      <path
         d="m -111.82421,122.10751 v -14.0365 h -2.32748 v 14.0365 z"
         style="font-weight:900;-inkscape-font-specification:'Facade Heavy';text-align:center;text-anchor:middle"
         id="path5606" />
      <path
         d="m -103.4095,122.10751 v -0.85938 h -2.95411 v -3.67025 h 2.95411 v -5.67548 h -5.90822 v 10.20511 z m -2.95411,-9.34573 h 2.68556 v 4.54754 h -2.68556 z"
         style="font-weight:900;-inkscape-font-specification:'Facade Heavy';text-align:center;text-anchor:middle"
         id="path5608" />
      <path
         d="m -98.575511,108.93039 v -0.85938 h -2.327479 v 0.85938 z m 0,13.17712 V 111.9024 h -2.327479 v 10.20511 z"
         style="font-weight:900;-inkscape-font-specification:'Facade Heavy';text-align:center;text-anchor:middle"
         id="path5610" />
      <path
         d="m -93.114908,122.10751 v -9.34573 h 2.685555 v 9.34573 h 0.268555 V 111.9024 h -5.908221 v 10.20511 z"
         style="font-weight:900;-inkscape-font-specification:'Facade Heavy';text-align:center;text-anchor:middle"
         id="path5612" />
      <path
         d="m -81.746072,122.10751 v -0.85938 h -2.95411 v -3.67025 h 2.95411 v -5.67548 h -5.908221 v 10.20511 z m -2.95411,-9.34573 h 2.685555 v 4.54754 h -2.685555 z"
         style="font-weight:900;-inkscape-font-specification:'Facade Heavy';text-align:center;text-anchor:middle"
         id="path5614" />
      <path
         d="m -113.61459,139.11603 v -14.0365 h -2.32748 v 14.0365 z"
         style="font-weight:900;-inkscape-font-specification:'Facade Heavy';text-align:center;text-anchor:middle"
         id="path5616" />
      <path
         d="m -105.19987,139.11603 v -10.20511 h -0.26856 v 9.34573 h -2.68555 v -9.34573 h -2.95411 v 10.20511 z"
         style="font-weight:900;-inkscape-font-specification:'Facade Heavy';text-align:center;text-anchor:middle"
         id="path5618" />
      <path
         d="m -99.739258,139.11603 v -9.34573 h 2.685555 v 9.34573 h 0.268556 v -10.20511 h -5.908223 v 10.20511 z"
         style="font-weight:900;-inkscape-font-specification:'Facade Heavy';text-align:center;text-anchor:middle"
         id="path5620" />
      <path
         d="m -88.370421,139.11603 v -0.85938 h -2.954111 v -3.67026 h 2.954111 v -5.67547 h -5.908221 v 10.20511 z m -2.954111,-9.34573 h 2.685555 v 4.54754 h -2.685555 z"
         style="font-weight:900;-inkscape-font-specification:'Facade Heavy';text-align:center;text-anchor:middle"
         id="path5622" />
    </g>
    <g
       aria-label="MS"
       transform="matrix(0.19853075,0,0,0.19853075,32.26051,267.33535)"
       id="text5516"
       style="font-size:40px;line-height:1.25;font-family:Facade;-inkscape-font-specification:Facade;white-space:pre;shape-inside:url(#rect5552);fill:#98c1d9">
      <path
         d="m -130.12031,144.13262 v -29.36 h 8.4 v 29.36 h 2 v -29.36 h 8.4 v 29.36 h 3.4 v -31.36 h -25.6 v 31.36 z"
         id="path5599" />
      <path
         d="m -89.120361,144.13262 v -22.8 h -9.88 v -6.56 h 9.88 v -2 h -13.199999 v 10.56 h 11.199999 v 18.8 h -11.199999 v 2 z"
         id="path5601" />
    </g>
    <path
       id="ellipse5518"
       style="fill:#3d5a80;stroke:#ee6c4d;stroke-width:0.202997"
       d="m 11.277963,183.4987 a 1.1180015,1.1180394 0 0 1 -1.118001,1.11804 1.1180015,1.1180394 0 0 1 -1.1180018,-1.11804 1.1180015,1.1180394 0 0 1 1.1180018,-1.11804 1.1180015,1.1180394 0 0 1 1.118001,1.11804 z" />
    <path
       style="display:inline;fill:none;stroke:#e0fbfc;stroke-width:0.264583px;stroke-linecap:butt;stroke-linejoin:miter;stroke-opacity:1"
       d="m 5.2,232.842 v 48.773"
       id="path5520"
       sodipodi:nodetypes="cc" />
    <path
       style="display:inline;fill:none;stroke:#e0fbfc;stroke-width:0.264583px;stroke-linecap:butt;stroke-linejoin:miter;stroke-opacity:1"
       d="m 15.132291,232.842 v 48.773"
       id="path5522"
       sodipodi:nodetypes="cc" />
    <g
       aria-label="in"
       transform="matrix(0.08401361,0,0,0.08401361,15.484975,215.09134)"
       id="text5528"
       style="font-size:40px;line-height:1.25;font-family:Facade;-inkscape-font-specification:Facade;white-space:pre;shape-inside:url(#rect5554);fill:#e0fbfc">
      <path
         d="m -130.12031,115.57262 v -2.8 h -3.4 v 2.8 z m 0,28.56 v -22.8 h -3.4 v 22.8 z"
         style="font-weight:100;-inkscape-font-specification:'Facade Thin'"
         id="path5593" />
      <path
         d="m -121.12037,144.13262 v -20 h 7 v 20 h 2.8 v -22.8 h -13.2 v 22.8 z"
         style="font-weight:100;-inkscape-font-specification:'Facade Thin'"
         id="path5595" />
    </g>
    <g
       aria-label="out"
       transform="matrix(0.08401361,0,0,0.08401361,24.383898,215.09134)"
       id="text5534"
       style="font-size:40px;line-height:1.25;font-family:Facade;-inkscape-font-specification:Facade;white-space:pre;shape-inside:url(#rect5556);fill:#e0fbfc">
      <path
         d="m -120.32031,144.13262 v -22.8 h -13.2 v 22.8 z m -9.8,-20 h 7 v 17.2 h -7 z"
         style="font-weight:100;-inkscape-font-specification:'Facade Thin'"
         id="path5586" />
      <path
         d="m -101.52034,144.13262 v -22.8 h -2.8 v 20 h -7 v -20 h -3.4 v 22.8 z"
         style="font-weight:100;-inkscape-font-specification:'Facade Thin'"
         id="path5588" />
      <path
         d="m -92.520367,144.13262 v -20 h 5.8 v -2.8 h -5.8 v -8.56 h -3.4 v 31.36 z"
         style="font-weight:100;-inkscape-font-specification:'Facade Thin'"
         id="path5590" />
    </g>
    <g
       aria-label="knobs"
       transform="matrix(0.08401361,0,0,0.08401361,17.680929,204.508)"
       id="text5540"
       style="font-size:40px;line-height:1.25;font-family:Facade;-inkscape-font-specification:Facade;white-space:pre;shape-inside:url(#rect5558);fill:#e0fbfc">
      <path
         d="m -130.12031,144.13262 v -9.04 h 6.4 v 9.04 h 3.4 v -11.84 h -3.4 v -10.96 h -2.8 v 10.96 h -3.6 v -19.52 h -3.4 v 31.36 z"
         style="font-weight:100;-inkscape-font-specification:'Facade Thin'"
         id="path5575" />
      <path
         d="m -111.72035,144.13262 v -20 h 7 v 20 h 2.8 v -22.8 h -13.2 v 22.8 z"
         style="font-weight:100;-inkscape-font-specification:'Facade Thin'"
         id="path5577" />
      <path
         d="m -83.120377,144.13262 v -22.8 h -13.2 v 22.8 z m -9.8,-20 h 7 v 17.2 h -7 z"
         style="font-weight:100;-inkscape-font-specification:'Facade Thin'"
         id="path5579" />
      <path
         d="m -64.320404,144.13262 v -22.8 h -9.8 v -8.56 h -3.4 v 31.36 z m -9.8,-20 h 7 v 17.2 h -7 z"
         style="font-weight:100;-inkscape-font-specification:'Facade Thin'"
         id="path5581" />
      <path
         d="m -45.520432,144.13262 v -11.84 h -9.8 v -8.16 h 9.8 v -2.8 h -13.2 v 13.76 h 10.4 v 6.24 h -10.4 v 2.8 z"
         style="font-weight:100;-inkscape-font-specification:'Facade Thin'"
         id="path5583" />
    </g>
    <g
       aria-label="button"
       transform="matrix(0.08401361,0,0,0.08401361,17.344874,187.77457)"
       id="text5546"
       style="font-size:40px;line-height:1.25;font-family:Facade;-inkscape-font-specification:Facade;white-space:pre;shape-inside:url(#rect5560);fill:#e0fbfc">
      <path
         d="m -120.32031,144.13262 v -22.8 h -9.8 v -8.56 h -3.4 v 31.36 z m -9.8,-20 h 7 v 17.2 h -7 z"
         style="font-weight:100;-inkscape-font-specification:'Facade Thin'"
         id="path5562" />
      <path
         d="m -101.52034,144.13262 v -22.8 h -2.8 v 20 h -7 v -20 h -3.4 v 22.8 z"
         style="font-weight:100;-inkscape-font-specification:'Facade Thin'"
         id="path5564" />
      <path
         d="m -92.520367,144.13262 v -20 h 5.8 v -2.8 h -5.8 v -8.56 h -3.4 v 31.36 z"
         style="font-weight:100;-inkscape-font-specification:'Facade Thin'"
         id="path5566" />
      <path
         d="m -79.32037,144.13262 v -20 h 5.8 v -2.8 h -5.8 v -8.56 h -3.4 v 31.36 z"
         style="font-weight:100;-inkscape-font-specification:'Facade Thin'"
         id="path5568" />
      <path
         d="m -56.320374,144.13262 v -22.8 h -13.2 v 22.8 z m -9.8,-20 h 7 v 17.2 h -7 z"
         style="font-weight:100;-inkscape-font-specification:'Facade Thin'"
         id="path5570" />
      <path
         d="m -47.320401,144.13262 v -20 h 7 v 20 h 2.8 v -22.8 h -13.2 v 22.8 z"
         style="font-weight:100;-inkscape-font-specification:'Facade Thin'"
         id="path5572" />
    </g>
  </g>
  <g
     inkscape:groupmode="layer"
     id="layer2"
     inkscape:label="components"
     style="display:inline" />
</svg>
